<svg xmlns="http://www.w3.org/2000/svg" xmlns:xlink="http://www.w3.org/1999/xlink" width="500" zoomAndPan="magnify" viewBox="0 0 375 374.999991" height="500" preserveAspectRatio="xMidYMid meet" version="1.0"><defs><clipPath id="1a353d99d9"><path d="M 79.601562 79.601562 L 295.390625 79.601562 L 295.390625 295.390625 L 79.601562 295.390625 Z M 79.601562 79.601562 " clip-rule="nonzero"/></clipPath><clipPath id="d441082ad4"><path d="M 187.496094 79.601562 C 127.90625 79.601562 79.601562 127.90625 79.601562 187.496094 C 79.601562 247.082031 127.90625 295.390625 187.496094 295.390625 C 247.082031 295.390625 295.390625 247.082031 295.390625 187.496094 C 295.390625 127.90625 247.082031 79.601562 187.496094 79.601562 Z M 187.496094 79.601562 " clip-rule="nonzero"/></clipPath></defs><path stroke-linecap="butt" transform="matrix(0.75, -0.000000000000000186, 0.000000000000000186, 0.75, -113.060429, 155.62499)" fill="none" stroke-linejoin="miter" d="M 0.00244683 42.500016 L 290.106633 42.500016 " stroke="#ffffff" stroke-width="85" stroke-opacity="1" stroke-miterlimit="4"/><path stroke-linecap="butt" transform="matrix(0.75, -0.000000000000000186, 0.000000000000000186, 0.75, 273.939536, 155.62499)" fill="none" stroke-linejoin="miter" d="M 0.00249352 42.500016 L 290.106679 42.500016 " stroke="#ffffff" stroke-width="85" stroke-opacity="1" stroke-miterlimit="4"/><g clip-path="url(#1a353d99d9)"><g clip-path="url(#d441082ad4)"><path stroke-linecap="butt" transform="matrix(0.75, 0, 0, 0.75, 79.600276, 79.600272)" fill="none" stroke-linejoin="miter" d="M 143.8611 0.00172124 C 64.407969 0.00172124 0.00171524 64.407975 0.00171524 143.861106 C 0.00171524 223.309028 64.407969 287.72049 143.8611 287.72049 C 223.309022 287.72049 287.720484 223.309028 287.720484 143.861106 C 287.720484 64.407975 223.309022 0.00172124 143.8611 0.00172124 Z M 143.8611 0.00172124 " stroke="#ffffff" stroke-width="122" stroke-opacity="1" stroke-miterlimit="4"/></g></g></svg>